<svg width="20" height="20" viewBox="0 0 20 20" fill="none" xmlns="http://www.w3.org/2000/svg">
<path fill-rule="evenodd" clip-rule="evenodd" d="M10.0102 4.64306L9.10439 3.73723C7.31449 1.94733 4.41248 1.94733 2.62258 3.73723C0.832676 5.52714 0.832676 8.42914 2.62258 10.219L9.98827 17.5847L9.98977 17.5832L10.0117 17.6052L17.3774 10.2395C19.1673 8.44959 19.1673 5.54758 17.3774 3.75768C15.5875 1.96778 12.6855 1.96778 10.8956 3.75768L10.0102 4.64306ZM9.98977 15.2262L14.1033 11.1127L15.3123 9.94516L15.3135 9.94636L16.1989 9.06098C17.3379 7.92195 17.3379 6.07522 16.1989 4.93619C15.0599 3.79716 13.2131 3.79716 12.0741 4.93619L10.0111 6.99919L10.0051 6.99316L10.0042 6.99405L7.92588 4.91574C6.78685 3.77672 4.94012 3.77672 3.80109 4.91574C2.66206 6.05477 2.66206 7.90151 3.80109 9.04053L5.91728 11.1567L5.91878 11.1552L9.98977 15.2262Z" fill="black"/>
</svg>
