<svg width="57" height="15" viewBox="0 0 57 15" fill="none" xmlns="http://www.w3.org/2000/svg">
<rect width="57" height="15" rx="7.5" fill="#3EB991"/>
<path d="M11.9332 4.14H13.1927V11.14H11.9332V8.24H9.54291V11.14H8.2742V4.14H9.54291V6.92H11.9332V4.14Z" fill="white"/>
<path d="M19.5826 10.23C18.9329 10.93 18.1423 11.28 17.2107 11.28C16.2791 11.28 15.4884 10.93 14.8388 10.23C14.1952 9.52333 13.8734 8.66 13.8734 7.64C13.8734 6.62 14.1952 5.76 14.8388 5.06C15.4884 4.35333 16.2791 4 17.2107 4C18.1423 4 18.9329 4.35333 19.5826 5.06C20.2323 5.76 20.5571 6.62 20.5571 7.64C20.5571 8.66 20.2323 9.52333 19.5826 10.23ZM15.7305 9.29C16.1289 9.71667 16.6223 9.93 17.2107 9.93C17.7991 9.93 18.2925 9.71667 18.6909 9.29C19.0892 8.85667 19.2884 8.30667 19.2884 7.64C19.2884 6.97333 19.0892 6.42333 18.6909 5.99C18.2925 5.55667 17.7991 5.34 17.2107 5.34C16.6223 5.34 16.1289 5.55667 15.7305 5.99C15.3321 6.42333 15.1329 6.97333 15.1329 7.64C15.1329 8.30667 15.3321 8.85667 15.7305 9.29Z" fill="white"/>
<path d="M25.1171 7.51C25.6809 7.86333 25.9629 8.39667 25.9629 9.11C25.9629 9.70333 25.7698 10.19 25.3837 10.57C24.9976 10.95 24.5226 11.14 23.9587 11.14H21.2282V4.14H23.7656C24.3172 4.14 24.78 4.32667 25.1538 4.7C25.5338 5.06667 25.7238 5.53667 25.7238 6.11C25.7238 6.69 25.5216 7.15667 25.1171 7.51ZM23.7656 5.43H22.4969V6.97H23.7656C23.9617 6.97 24.1242 6.89667 24.2529 6.75C24.3877 6.60333 24.4551 6.42 24.4551 6.2C24.4551 5.98 24.3908 5.79667 24.2621 5.65C24.1334 5.50333 23.9679 5.43 23.7656 5.43ZM23.9587 9.85C24.1732 9.85 24.3509 9.77333 24.4919 9.62C24.6329 9.46 24.7034 9.26 24.7034 9.02C24.7034 8.78667 24.6329 8.59333 24.4919 8.44C24.3509 8.28 24.1732 8.2 23.9587 8.2H22.4969V9.85H23.9587Z" fill="white"/>
<path d="M30.2973 11.14V6.87L27.5393 11.14H26.574V4.14H27.8427V8.42L30.6007 4.14H31.5661V11.14H30.2973Z" fill="white"/>
<path d="M36.1982 4.14H37.4578V11.14H36.1982V8.24H33.8079V11.14H32.5392V4.14H33.8079V6.92H36.1982V4.14Z" fill="white"/>
<path d="M43.4615 11.14H41.9997L39.7013 7.86V11.14H38.4326V4.14H39.7013V7.23L41.9078 4.14H43.3696L40.9884 7.54L43.4615 11.14Z" fill="white"/>
<path d="M48.1669 11.14L47.7807 9.88H45.2157L44.8296 11.14H43.4598L45.7122 4.14H47.2843L49.5459 11.14H48.1669ZM45.6203 8.59H47.3854L46.5028 5.73L45.6203 8.59Z" fill="white"/>
</svg>
