<svg width="1028" height="108" viewBox="0 0 1028 108" fill="none" xmlns="http://www.w3.org/2000/svg">
<path d="M329.757 52.0768V46.7713H324.396V52.0768H321.465V39.4005H324.396V44.4568H329.757V39.4005H332.723V52.0768H329.757ZM266.463 39.4005V47.341C266.463 48.2312 266.606 48.979 266.857 49.5843C267.107 50.1896 267.464 50.6881 267.964 51.0798C268.429 51.4715 269.001 51.7564 269.68 51.9344C270.359 52.1124 271.109 52.2193 271.931 52.2193C272.753 52.2193 273.504 52.1124 274.147 51.9344C274.791 51.7564 275.327 51.4715 275.791 51.0798C276.22 50.6881 276.578 50.1896 276.828 49.5843C277.078 48.979 277.185 48.1956 277.185 47.341V39.4005H274.433V47.2342C274.433 48.0175 274.219 48.6941 273.826 49.157C273.433 49.6555 272.789 49.8692 271.931 49.8692C271.074 49.8692 270.466 49.6199 270.037 49.157C269.644 48.6941 269.43 48.0532 269.43 47.2342V39.4005H266.463ZM257.993 52.0768V41.7862H254.527V39.4361H264.391V40.5755C264.391 41.2521 263.819 41.8218 263.14 41.8218H260.888V52.1124H257.993V52.0768ZM305.204 39.4005H308.135V52.0768H305.204V39.4005ZM295.412 46.1659L295.519 46.3084L299.272 51.1154C299.736 51.7208 300.451 52.0768 301.237 52.0768H303.56L298.199 45.2757L298.128 45.1689L298.199 45.0621L302.631 39.4005H299.593L295.555 44.8485L295.448 44.9909V44.7772V39.4005H292.517V52.0768H295.448V46.4152L295.412 46.1659ZM288.657 52.0768C287.799 52.0768 286.977 51.6139 286.513 50.8662L284.226 47.0917H282.76V52.0412H279.83V39.4005H285.083C286.441 39.4005 287.478 39.7565 288.228 40.4331C288.943 41.1096 289.336 42.071 289.336 43.2461C289.336 43.8514 289.193 44.4568 288.872 45.0265C288.55 45.5962 288.014 46.0947 287.228 46.4508L287.049 46.522L290.623 52.0412H288.657V52.0768ZM282.76 45.2045H284.476C285.083 45.2045 285.548 45.0265 285.87 44.706C286.191 44.3855 286.334 43.9583 286.334 43.4241C286.334 42.89 286.191 42.4627 285.87 42.1423C285.584 41.8218 285.083 41.6437 284.476 41.6437H282.76V45.2045ZM310.529 51.5427V49.1214C311.459 49.5487 312.674 49.976 313.925 49.976C315.354 49.976 316.069 49.4775 316.069 48.5517C316.069 47.4478 315.104 47.341 313.138 46.4864C311.816 45.8811 310.529 44.9909 310.529 42.8544C310.529 40.3975 312.423 39.2224 315.032 39.2224C316.426 39.2224 317.606 39.5429 318.285 39.7921V42.1423C317.606 41.8218 316.426 41.4657 315.247 41.4657C313.96 41.4657 313.353 41.9286 313.353 42.7476C313.353 43.6022 314.067 43.887 315.39 44.3499C317.07 45.1689 319.035 45.5606 319.035 48.4092C319.035 50.8662 317.07 52.2193 314.425 52.2193C312.817 52.2549 311.53 51.97 310.529 51.5427ZM315.14 68.5989V55.9225H323.109V57.0619C323.109 57.7385 322.573 58.2726 321.894 58.2726H318.106V60.9788H322.359V63.0797H318.106V66.1775H323.109V68.5277L315.14 68.5989ZM286.084 68.5989V55.9225H287.514C288.336 55.9225 289.015 56.599 289.015 57.418V66.2844H293.696V68.5633H286.084V68.5989ZM267.929 68.5989V55.9581H270.859V68.5989H267.929ZM282.367 68.5989C281.509 68.5989 280.687 68.136 280.223 67.3882L277.936 63.6138H276.47V68.5989H273.54V55.9581H278.758C280.116 55.9581 281.152 56.3142 281.903 56.9907C282.617 57.6673 283.01 58.6287 283.01 59.8037C283.01 60.4091 282.868 61.0144 282.546 61.5841C282.224 62.1539 281.688 62.6524 280.902 63.0084L280.723 63.0797L284.297 68.5989H282.367ZM276.47 61.7266H278.186C278.793 61.7266 279.258 61.5485 279.58 61.2281C279.901 60.9076 280.044 60.4803 280.044 59.9462C280.044 59.4121 279.901 58.9848 279.58 58.6643C279.294 58.3438 278.793 58.1658 278.186 58.1658H276.47V61.7266ZM261.46 55.9225H258.101L253.276 68.5989H255.384C255.921 68.5989 256.385 68.2428 256.564 67.7443L257.064 66.2488H262.211L262.961 68.5989H266.142L261.46 55.9225ZM257.815 63.9699L258.958 60.7652C259.208 60.053 259.459 59.2696 259.637 58.7355H259.673C259.816 59.3052 260.066 60.0174 260.352 60.7652L261.46 63.9699H257.815ZM325.432 68.0648V65.6434C326.362 66.0707 327.577 66.498 328.828 66.498C330.257 66.498 330.972 65.9995 330.972 65.0737C330.972 63.9699 330.007 63.863 328.041 63.0084C326.719 62.4031 325.432 61.5129 325.432 59.3764C325.432 56.9195 327.327 55.7444 329.935 55.7444C331.329 55.7444 332.509 56.0649 333.188 56.3142V58.6643C332.509 58.3438 331.329 57.9877 330.15 57.9877C328.863 57.9877 328.256 58.4506 328.256 59.2696C328.256 60.1242 328.971 60.4091 330.293 60.872C331.973 61.691 333.938 62.0826 333.938 64.9313C333.938 67.3882 331.973 68.7413 329.328 68.7413C327.72 68.7769 326.433 68.4921 325.432 68.0648ZM301.237 55.9581H303.06C303.918 55.9581 304.74 56.421 305.169 57.1332L308.707 62.7948C309.1 63.4357 309.564 64.2547 309.85 64.8601H309.922C309.886 64.2903 309.85 63.507 309.85 62.9372V55.9581H312.423V68.5989H309.207L304.883 61.7622C304.489 61.1212 304.061 60.3735 303.775 59.8037H303.739C303.775 60.3379 303.81 61.0144 303.81 61.6197V68.5989H301.237V55.9581ZM295.591 55.9581H298.521V68.5989H295.591V55.9581Z" fill="#87CDE3"/>
<path d="M231.261 37.9406C239.409 38.7952 245.771 45.6675 245.771 53.9997C245.771 62.9373 238.516 70.1657 229.545 70.1657C220.575 70.1657 213.32 62.9373 213.32 53.9997C213.32 45.0621 220.575 37.8337 229.545 37.8337C230.117 37.8337 230.689 37.8693 231.261 37.9406ZM232.083 69.0262C240.41 67.6375 246.057 59.7682 244.627 51.4715C243.448 44.5636 237.801 39.5073 231.154 38.8308C229.796 38.6883 228.402 38.7239 227.008 38.9732C225.328 39.2581 223.791 39.7922 222.398 40.5399C229.76 43.0325 233.691 46.8069 233.977 50.6526C234.12 53.0383 233.012 54.7831 231.547 56.1718L241.947 55.4596C242.233 55.424 242.34 55.7801 241.982 55.8869L217.18 62.9373C219.717 66.3912 223.613 68.7057 227.973 69.1686C229.295 69.3111 230.689 69.2755 232.083 69.0262ZM225.292 54.3558C226.651 49.2639 225.114 43.9227 221.397 41.1097C216.358 44.2788 213.427 50.2965 214.499 56.5279C214.857 58.5931 215.607 60.4803 216.644 62.1539C220.575 61.0501 224.042 58.9848 225.292 54.3558Z" fill="#87CDE3"/>
<path d="M232.083 69.0262C240.41 67.6375 246.057 59.7682 244.627 51.4715C243.448 44.5636 237.801 39.5073 231.154 38.8307C229.795 38.6883 228.402 38.7239 227.008 38.9732C225.328 39.258 223.791 39.7922 222.398 40.5399C229.76 43.0325 233.691 46.8069 233.977 50.6526C234.12 53.0383 233.012 54.7831 231.547 56.1718L241.947 55.4596C242.233 55.424 242.34 55.7801 241.982 55.8869L217.18 62.9373C219.717 66.3912 223.613 68.7057 227.973 69.1686C229.295 69.3111 230.689 69.2755 232.083 69.0262ZM225.292 54.3558C226.65 49.2638 225.114 43.9227 221.397 41.1096C216.358 44.2787 213.427 50.2965 214.499 56.5278C214.857 58.5931 215.607 60.4803 216.644 62.1539C220.575 61.05 224.042 58.9848 225.292 54.3558Z" fill="white" fill-opacity="0.27"/>
<path d="M574.948 66.8931V66.9131H571.672L563.756 56.3026L555.859 66.9131H552.584L562.108 54.1004L553.407 42.4488H556.663L563.756 51.9383L570.849 42.4488H574.124L565.403 54.0804L574.948 66.8931ZM509.101 42.4489H505.846L498.753 51.9383L491.66 42.4489H488.385L497.106 54.1004L487.561 66.9131H490.836L498.753 56.3026L506.65 66.9131H509.925V66.8931L500.401 54.0804L509.101 42.4489ZM530.2 59.746C530.2 64.1504 526.804 66.8931 521.338 66.8931H511.272V55.4417C511.272 55.4417 506.469 55.4417 506.107 55.4417C506.489 54.9012 507.474 53.5599 507.916 52.9993C508.016 52.9993 511.272 52.9993 511.272 52.9993V42.4489H521.338C528.813 42.4489 529.396 47.5339 529.396 49.0955C529.396 51.1975 528.21 53.0193 526.422 53.9803C526.985 54.2206 527.527 54.5609 528.05 55.0014C529.476 56.1825 530.22 57.8241 530.2 59.746ZM514.064 52.9793C515.21 52.9793 521.358 52.9793 521.358 52.9793C524.714 52.9793 526.643 51.4378 526.643 48.8752C526.643 45.4719 523.328 44.9914 521.358 44.9914C521.358 44.9914 515.19 44.9914 514.064 44.9914V52.9793ZM527.427 59.6859C527.427 56.1825 524.131 55.4417 521.358 55.4417C521.358 55.4417 515.19 55.4417 514.064 55.4417V64.3306C515.21 64.3306 521.358 64.3306 521.358 64.3306C523.609 64.3306 527.427 63.73 527.427 59.6859ZM555.115 54.661C555.115 62.1884 550.253 67.4336 543.3 67.4336C536.308 67.4336 531.445 62.1884 531.445 54.661C531.445 47.1335 536.308 41.8883 543.3 41.8883C550.253 41.8883 555.115 47.1335 555.115 54.661ZM552.302 54.661C552.302 48.655 548.605 44.4709 543.3 44.4709C537.976 44.4709 534.258 48.655 534.258 54.661C534.258 60.6669 537.976 64.8511 543.3 64.8511C548.605 64.8511 552.302 60.6469 552.302 54.661ZM447.759 36.0489C448.33 36.0212 449.217 36.072 449.742 36.1599C451.232 36.419 453.929 37.3672 455.68 38.2554C456.557 38.6995 457.328 39.0742 457.384 39.0834C457.444 39.0973 458.261 38.7319 459.204 38.2739C462.328 36.7567 465.235 35.9518 467.231 36.0536L468.234 36.1044L467.798 35.8361C466.326 34.9341 463.712 33.9627 461.493 33.4955C459.436 33.0607 455.513 33.0653 453.423 33.5048C451.566 33.8933 450.197 34.3467 448.558 35.1192C446.585 36.0489 446.529 36.109 447.759 36.0489ZM450.93 45.5781L451.747 44.5742L450.248 43.2235C447.68 40.906 446.027 39.7681 444.477 39.2453C443.2 38.8151 443.107 38.8429 442.058 39.93C439.597 42.4834 437.554 46.6281 436.983 50.2131C436.524 53.0904 436.468 53.8906 436.626 55.2923C437.104 59.5341 438.088 62.4715 440.034 65.4505C440.832 66.6717 441.05 66.903 440.814 66.2785C440.461 65.3534 440.79 63.1237 441.612 60.908C443.121 56.828 447.128 50.2316 450.93 45.5781ZM474.46 41.845C473.388 40.3416 472.06 38.9678 471.684 38.9678C471.071 38.9678 469.65 39.5136 468.652 40.1335C467.389 40.9152 466.219 41.8404 464.534 43.3854L463.243 44.5696L464.436 46.0638C468.225 50.8145 472.352 57.8087 473.583 61.5648C474.154 63.2995 474.395 65.0203 474.205 65.9547C474.061 66.6717 474.061 66.6717 474.321 66.3479C474.831 65.7003 475.992 63.7158 476.461 62.6935C477.083 61.3243 477.724 59.312 478.026 57.7624C478.392 55.8751 478.36 51.8183 477.961 49.9217C477.343 46.9889 476.122 44.1672 474.46 41.845ZM457.546 50.0281C457.142 49.9402 453.396 53.28 450.703 56.1295C445.967 61.1439 443.195 65.5476 443.195 68.0595C443.195 69.313 443.725 69.9375 446.069 71.464C448.869 73.2866 452.123 74.4384 455.336 74.7437C458.024 75.0028 461.293 74.6697 463.782 73.8833C466.799 72.9351 470.908 70.4602 471.572 69.1928C472.445 67.5275 470.727 63.7898 466.994 59.2196C464.636 56.3376 458.336 50.2038 457.546 50.0281Z" fill="#87CDE3"/>
<path d="M772.46 67.9124C774.225 68.0431 776.057 68.2386 777.757 68.3048V37.0244H772.46V67.9124ZM686.125 56.248L679.192 36.9596H674.09V71.0406C675.856 70.8451 677.687 70.5189 679.388 70.3241V51.7514L685.602 69.6077C687.564 69.4122 689.461 69.2153 691.423 69.0216V36.9596H686.125V56.248ZM696.721 68.4989C701.626 68.1086 706.662 67.6518 711.633 67.3918V62.1133C708.428 62.3088 705.289 62.505 702.084 62.7001V54.7496C704.111 54.7496 706.924 54.6196 709.344 54.6196V49.3411C707.382 49.3411 704.308 49.3411 702.084 49.4711V42.3029H711.633V37.0244H696.721V68.4989ZM715.034 42.3029H720.659V66.8702C722.425 66.7402 724.256 66.7402 725.957 66.6747V42.1722H731.581V36.9589H715.033V42.3029H715.034ZM735.048 66.6747H740.346V54.4234H747.671V49.2105H740.412V42.3032H750.026V37.0247H735.047L735.048 66.6747ZM801.499 36.9596H795.548L791.689 45.9527L788.222 36.9596H782.336L788.55 52.9902L781.748 68.6951C783.579 68.8906 785.541 69.0868 787.372 69.2812L791.361 60.0926L795.222 70.1934C797.249 70.5182 799.341 70.7137 801.368 71.0398C801.368 71.0398 796.816 58.9755 794.501 53.1198L801.499 36.9596ZM758.79 36.9596H753.492V66.8702C758.398 67.0664 763.238 67.2618 768.012 67.588V62.3088C764.938 62.1133 761.864 61.9185 758.79 61.7879V36.9596Z" fill="#87CDE3"/>
<path d="M924.158 74.7591V61.0145L934.252 31.9229H929.987L922.132 55.1748L915.308 35.9465H910.581L919.858 60.872V74.7591H924.158Z" fill="#61C1DF"/>
<path d="M942.711 69.418C941.93 70.5931 940.472 71.5901 939.015 71.5901C936.847 71.5901 935.816 69.5248 935.816 66.3914C935.816 62.8662 936.954 60.5161 942.214 60.5161H942.711V69.418ZM946.87 68.599V55.7446C946.87 49.1216 944.204 47.0563 939.37 47.0563C936.634 47.0563 934.11 48.1958 932.866 49.2284L933.684 52.9672C935.105 51.7209 936.954 50.5815 939.122 50.5815C941.503 50.5815 942.711 52.077 942.711 55.6734V57.3114H942.107C934.466 57.3114 931.48 60.979 931.48 66.8899C931.48 72.2666 934.146 75.1865 938.055 75.1865C940.437 75.1865 941.965 74.1539 943.138 72.6227H943.422C943.458 73.3349 943.636 74.1895 943.813 74.7948H947.403C947.154 73.4773 946.87 71.1984 946.87 68.599ZM956.36 53.5369C957.319 52.1838 958.848 50.8307 960.625 50.8307C962.26 50.8307 963.184 51.5429 963.184 53.5725V74.7592H967.449V53.2165C967.449 49.0503 965.565 47.0207 961.975 47.0207C959.416 47.0207 957.39 48.6943 956.609 49.7269H956.36V47.3412H952.13V74.7592H956.36V53.5369ZM979.924 75.1509C982.163 75.1509 983.656 74.1183 984.865 72.5871H985.149L985.469 74.7592H988.632V35.9467H984.403V48.0533C983.585 47.448 982.235 47.0207 980.955 47.0207C975.482 47.0207 971.678 51.9702 971.678 62.1184C971.643 70.5931 974.593 75.1509 979.924 75.1509ZM984.403 69.4536C983.692 70.5219 982.59 71.5545 980.457 71.5545C977.365 71.5545 976.192 67.6376 976.192 61.2282C976.192 55.6378 977.827 50.4747 981.204 50.4747C982.626 50.4747 983.55 50.9019 984.403 51.7921V69.4536ZM1008.54 72.9432L1007.58 69.7029C1006.51 70.4507 1004.77 71.5189 1002.39 71.5189C999.011 71.5189 997.305 68.2786 997.305 62.0828H1008.68V59.7327C1008.68 50.439 1005.69 47.0207 1001.14 47.0207C995.35 47.0207 992.897 53.4301 992.897 62.2252C992.897 70.6643 996.38 75.1509 1002 75.1509C1004.66 75.1509 1006.79 74.2963 1008.54 72.9432ZM1001.11 50.5103C1003.52 50.5103 1004.31 53.9286 1004.31 58.5932H997.305C997.589 53.715 998.513 50.5103 1001.11 50.5103ZM1022.9 47.4124L1019.16 57.347L1015.64 47.4124H1011.27L1016.43 60.6229L1010.74 74.7948H1014.9L1019.02 63.5071L1023.25 74.7948H1027.66L1021.97 60.2312L1027.05 47.4124H1022.9Z" fill="#87CDE3"/>
<path d="M9.74122 83.5185V75.756L6.43577 81.3108L3.09479 75.756V83.5185H0.642365V72.5157H3.84118L6.47132 77.0023L8.99483 72.5157H12.2292V83.5185H9.74122ZM14.2906 72.5513H16.7431V83.5541H14.2906V72.5513ZM17.8449 72.5513H26.2684V74.8658H23.2829V83.5541H20.7594V74.8658H17.8449V72.5513ZM27.1214 83.4117V81.0972C27.6546 81.204 28.863 81.4176 30.3558 81.4176C31.5998 81.4176 32.2395 81.2752 32.2395 80.5275C32.2395 79.7441 31.7064 79.6373 29.9293 78.7827C28.1877 77.9993 26.9082 77.3227 26.9082 75.4355C26.9082 73.121 28.3299 72.3376 31.0311 72.3376C32.4528 72.3376 33.448 72.4445 34.1233 72.5513V74.8658C33.4835 74.8302 32.3817 74.6522 31.1377 74.6522C29.6805 74.6522 29.3606 74.7946 29.3606 75.4355C29.3606 76.0765 30.1425 76.3613 31.351 76.8955C33.1637 77.75 34.6564 78.4266 34.6564 80.4918C34.6564 82.6995 33.3058 83.6965 30.3558 83.6965C29.2184 83.6965 28.1877 83.5897 27.1214 83.4117ZM36.1848 79.8153V72.5513H38.6372V79.7085C38.6372 80.9547 39.3836 81.382 40.5565 81.382C41.6938 81.382 42.4758 80.9547 42.4758 79.7085V72.5513H44.9282V79.8153C44.9282 82.4859 43.1866 83.6965 40.5209 83.6965C37.8552 83.6965 36.1848 82.4859 36.1848 79.8153ZM47.0607 72.5513H51.859C54.0981 72.5513 55.3776 73.4059 55.3776 75.3643C55.3776 76.9311 54.4891 77.4652 53.6361 77.7856C54.6313 78.1061 55.662 78.6402 55.662 80.4562C55.662 82.3791 54.5246 83.5541 52.0722 83.5541H47.0963V72.5513H47.0607ZM51.5035 77.0023C52.4987 77.0023 52.8541 76.4682 52.8541 75.756C52.8541 74.8658 52.4276 74.6522 51.5035 74.6522H49.5131V77.0023H51.5035ZM51.6457 81.4889C52.6409 81.4889 53.0674 81.1328 53.0674 80.1714C53.0674 79.3168 52.712 78.9607 51.7523 78.9607H49.5131V81.4889H51.6457ZM57.0837 72.5513H59.5361V83.5541H57.0837V72.5513ZM61.3132 83.4117V81.0972C61.8464 81.204 63.0548 81.4176 64.5476 81.4176C65.7916 81.4176 66.4313 81.2752 66.4313 80.5275C66.4313 79.7441 65.8982 79.6373 64.1211 78.7827C62.3795 77.9993 61.1 77.3227 61.1 75.4355C61.1 73.121 62.5217 72.3376 65.2229 72.3376C66.6446 72.3376 67.6398 72.4445 68.3151 72.5513V74.8658C67.6753 74.8302 66.5735 74.6522 65.3295 74.6522C63.8723 74.6522 63.5524 74.7946 63.5524 75.4355C63.5524 76.0765 64.3343 76.3613 65.5428 76.8955C67.3554 77.75 68.8482 78.4266 68.8482 80.4918C68.8482 82.6995 67.4976 83.6965 64.5476 83.6965C63.4458 83.6965 62.3795 83.5897 61.3132 83.4117ZM76.5965 83.5185V79.1744H72.6868V83.5185H70.2344V72.5157H72.6868V76.8598H76.5965V72.5157H79.0489V83.5185H76.5965ZM81.0748 72.5513H83.5272V83.5541H81.0748V72.5513ZM21.2214 98.367V90.6045L17.916 96.1593L14.6105 90.6045V98.367H12.087V87.3642H15.2858L17.916 91.8151L20.475 87.3642H23.7094V98.367H21.2214ZM25.4154 92.8478C25.4154 88.9309 26.9437 87.1861 30.1781 87.1861C33.4124 87.1861 34.9408 88.9309 34.9408 92.8478C34.9408 96.7646 33.4124 98.5094 30.1781 98.5094C26.9437 98.5094 25.4154 96.7646 25.4154 92.8478ZM32.3106 92.8478C32.3106 90.6045 31.9552 89.4294 30.107 89.4294C28.3299 89.4294 27.9034 90.5689 27.9034 92.8478C27.9034 95.0911 28.2588 96.2661 30.107 96.2661C31.9552 96.2661 32.3106 95.0911 32.3106 92.8478ZM35.2962 87.3642H43.7197V89.6787H40.7342V98.367H38.2818V89.6787H35.2962V87.3642ZM44.1107 92.8478C44.1107 88.9309 45.639 87.1861 48.8734 87.1861C52.1077 87.1861 53.6361 88.9309 53.6361 92.8478C53.6361 96.7646 52.1077 98.5094 48.8734 98.5094C45.639 98.5094 44.1107 96.7646 44.1107 92.8478ZM51.0059 92.8478C51.0059 90.6045 50.6505 89.4294 48.8023 89.4294C46.9896 89.4294 46.5987 90.5689 46.5987 92.8478C46.5987 95.0911 46.9541 96.2661 48.8023 96.2661C50.6505 96.2661 51.0059 95.0911 51.0059 92.8478ZM55.271 87.3642H59.7138C62.0596 87.3642 63.5879 88.2544 63.5879 90.8893C63.5879 92.6341 62.7349 93.7024 61.3488 94.0228L64.05 98.367H61.1711L58.8608 94.4501H57.759V98.367H55.3066V87.3642H55.271ZM59.6072 92.278C60.709 92.278 61.0644 91.7083 61.0644 90.8537C61.0644 89.9991 60.709 89.4294 59.6072 89.4294H57.7945V92.2424H59.6072V92.278ZM65.0452 98.1889V95.8744C65.5783 95.9813 66.7868 96.1949 68.2795 96.1949C69.5235 96.1949 70.1633 96.0525 70.1633 95.3047C70.1633 94.5213 69.6301 94.4145 67.853 93.5599C66.1115 92.7766 64.8319 92.1 64.8319 90.2128C64.8319 87.8983 66.2536 87.1149 68.9548 87.1149C70.3765 87.1149 71.3717 87.2217 72.047 87.3286V89.6431C71.4073 89.6075 70.3055 89.4294 69.0615 89.4294C67.6042 89.4294 67.2843 89.5718 67.2843 90.1772C67.2843 90.8181 68.0663 91.103 69.2747 91.6371C71.0874 92.4917 72.5802 93.1682 72.5802 95.2335C72.5802 97.4412 71.2296 98.4382 68.2795 98.4382C67.1777 98.5094 66.0759 98.4026 65.0452 98.1889Z" fill="#87CDE3"/>
<path d="M52.4987 27.721L41.9426 45.9878L31.4221 27.721L41.9426 9.48975L52.4987 27.721ZM62.9837 45.9878H41.9071L52.4631 64.219H73.4687L62.9837 45.9878ZM10.4165 64.219H31.4221L41.9426 45.9878H20.937L10.4165 64.219Z" fill="#87CDE3"/>
</svg>
