<svg width="57" height="15" viewBox="0 0 57 15" fill="none" xmlns="http://www.w3.org/2000/svg">
<rect width="57" height="15" rx="7.5" fill="#E01563"/>
<path d="M12.64 10.28C11.5867 10.28 10.7167 9.93 10.03 9.23C9.34333 8.53 9 7.66667 9 6.64C9 5.60667 9.34333 4.74333 10.03 4.05C10.7167 3.35 11.5867 3 12.64 3C13.2733 3 13.8567 3.15 14.39 3.45C14.93 3.74333 15.35 4.14333 15.65 4.65L14.46 5.34C14.2867 5.02667 14.04 4.78333 13.72 4.61C13.4 4.43 13.04 4.34 12.64 4.34C11.96 4.34 11.41 4.55333 10.99 4.98C10.5767 5.40667 10.37 5.96 10.37 6.64C10.37 7.31333 10.5767 7.86333 10.99 8.29C11.41 8.71667 11.96 8.93 12.64 8.93C13.04 8.93 13.4 8.84333 13.72 8.67C14.0467 8.49 14.2933 8.24667 14.46 7.94L15.65 8.63C15.35 9.13667 14.9333 9.54 14.4 9.84C13.8667 10.1333 13.28 10.28 12.64 10.28Z" fill="white"/>
<path d="M21.7277 10.14H20.1377L17.6377 6.86V10.14H16.2577V3.14H17.6377V6.23L20.0377 3.14H21.6277L19.0377 6.54L21.7277 10.14Z" fill="white"/>
<path d="M26.2201 10.14V5.87L23.2201 10.14H22.1701V3.14H23.5501V7.42L26.5501 3.14H27.6001V10.14H26.2201Z" fill="white"/>
<path d="M34.0386 8.82H34.7886V11.48H33.4086V10.14H29.5386V11.48H28.1586V8.82H28.8386C29.2253 8.28 29.4186 7.49 29.4186 6.45V3.14H34.0386V8.82ZM30.3186 8.82H32.6586V4.43H30.7986V6.47C30.7986 7.48333 30.6386 8.26667 30.3186 8.82Z" fill="white"/>
<path d="M40.9394 10.14H39.3494L36.8494 6.86V10.14H35.4694V3.14H36.8494V6.23L39.2494 3.14H40.8394L38.2494 6.54L40.9394 10.14Z" fill="white"/>
<path d="M46.0575 10.14L45.6375 8.88H42.8475L42.4275 10.14H40.9375L43.3875 3.14H45.0975L47.5575 10.14H46.0575ZM43.2875 7.59H45.2075L44.2475 4.73L43.2875 7.59Z" fill="white"/>
</svg>
